PathFileType        4      (X/Y/Z)      C:\Users\pc\Desktop\IMUTRC\Sujet_01\Sujet_01_velo_80.trc         
DataRate	CameraRate	NumFrames	NumMarkers	Units	OrigDataRate	OrigDataStartFrame	OrigNumFrames
60.0	60.0	4	64	mm	60.0	1	984
Frame#	Time	pHipOrigin			pRightASI			pLeftASI			pRightCSI			pLeftCSI			pRightIschialTub			pLeftIschialTub			pSacrum			pL5SpinalProcess			pL3SpinalProcess			pT12SpinalProcess			pIJ			pT4SpinalProcess			pT8SpinalProcess			pPX			pC7SpinalProcess			pTopOfHead			pRightAuricularis			pLeftAuricularis			pBackOfHead			pRightAcromion			pLeftAcromion			pRightArmLatEpicondyle			pRightArmMedEpicondyle			pLeftArmLatEpicondyle			pLeftArmMedEpicondyle			pRightUlnarStyloid			pRightRadialStyloid			pRightOlecranon			pLeftUlnarStyloid			pLeftRadialStyloid			pLeftOlecranon			pRightTopOfHand			pRightPinky			pRightBallHand			pLeftTopOfHand			pLeftPinky			pLeftBallHand			pRightGreaterTrochanter			pRightKneeLatEpicondyle			pRightKneeMedEpicondyle			pRightPatella			pLeftGreaterTrochanter			pLeftKneeLatEpicondyle			pLeftKneeMedEpicondyle			pLeftPatella			pRightTibialTub			pRightLatMalleolus			pRightMedMalleolus			pLeftTibialTub			pLeftLatMalleolus			pLeftMedMalleolus			pRightHeelFoot			pRightFirstMetatarsal			pRightFifthMetatarsal			pRightPivotFoot			pRightHeelCenter			pRightToe			pLeftHeelFoot			pLeftFirstMetatarsal			pLeftFifthMetatarsal			pLeftPivotFoot			pLeftHeelCenter			pLeftToe			
		X1	Y1	Z1	X2	Y2	Z2	X3	Y3	Z3	X4	Y4	Z4	X5	Y5	Z5	X6	Y6	Z6	X7	Y7	Z7	X8	Y8	Z8	X9	Y9	Z9	X10	Y10	Z10	X11	Y11	Z11	X12	Y12	Z12	X13	Y13	Z13	X14	Y14	Z14	X15	Y15	Z15	X16	Y16	Z16	X17	Y17	Z17	X18	Y18	Z18	X19	Y19	Z19	X20	Y20	Z20	X21	Y21	Z21	X22	Y22	Z22	X23	Y23	Z23	X24	Y24	Z24	X25	Y25	Z25	X26	Y26	Z26	X27	Y27	Z27	X28	Y28	Z28	X29	Y29	Z29	X30	Y30	Z30	X31	Y31	Z31	X32	Y32	Z32	X33	Y33	Z33	X34	Y34	Z34	X35	Y35	Z35	X36	Y36	Z36	X37	Y37	Z37	X38	Y38	Z38	X39	Y39	Z39	X40	Y40	Z40	X41	Y41	Z41	X42	Y42	Z42	X43	Y43	Z43	X44	Y44	Z44	X45	Y45	Z45	X46	Y46	Z46	X47	Y47	Z47	X48	Y48	Z48	X49	Y49	Z49	X50	Y50	Z50	X51	Y51	Z51	X52	Y52	Z52	X53	Y53	Z53	X54	Y54	Z54	X55	Y55	Z55	X56	Y56	Z56	X57	Y57	Z57	X58	Y58	Z58	X59	Y59	Z59	X60	Y60	Z60	X61	Y61	Z61	X62	Y62	Z62	X63	Y63	Z63	X64	Y64	Z64	
1	0.0	0.0	1249.99432	7.654007714701862E-14	31.911699999999982	1327.2039	143.7819200000001	93.34470000000002	1347.64172	-96.9900499999999	-0.3585600000000145	1392.46152	118.14499000000009	50.19818000000001	1409.25401	-79.83899999999991	-64.00267	1196.56912	32.21050000000007	-38.724309999999996	1204.99524	-66.81137999999993	-58.9231	1272.76278	-13.087379999999929	-20.37807	1365.3306	4.06366000000008	30.417699999999996	1458.79483	23.72461000000009	82.22939	1541.26326	42.3098900000001	309.55541	1566.24282	105.29665000000014	209.93594	1661.67912	82.34891000000013	145.15639	1613.51277	62.74772000000012	223.8002	1496.6825	79.06213000000011	246.2101	1688.2722	94.12158000000012	438.6962	1833.24931	95.01797000000018	384.91244	1763.56946	169.29932000000017	383.65748	1749.58568	38.24623000000015	341.94519	1786.27816	100.99395000000015	196.31071999999998	1651.4602	261.0305100000001	293.59956	1635.86291	-78.46452999999985	266.16984999999994	1436.38493	343.6184600000002	248.66024999999996	1408.59665	300.89025000000015	409.59321	1421.44499	-72.84710999999986	370.92866	1395.15071	-46.01498999999987	348.10043999999994	1266.66729	432.4214200000001	378.51813999999996	1264.5757	400.6890100000001	241.19027999999997	1427.71977	338.0608100000002	552.9568	1273.77869	-72.42879999999985	556.48263	1276.8862	-28.744429999999856	387.36259	1410.62848	-82.40866999999987	509.27243999999996	1236.9667	496.4241000000001	428.71631999999994	1242.34508	493.7946700000001	381.44636999999994	1247.72345	445.2697700000001	708.09307	1239.35709	10.278670000000163	655.44474	1249.93456	-50.13841999999985	588.15529	1257.04597	-55.81558999999985	-36.87175000000001	1221.48893	142.8855200000001	131.11284999999998	929.6224	221.40981000000008	164.75757999999996	927.17225	163.26359000000008	175.69360999999998	950.65782	204.85636000000008	43.14653000000001	1258.30092	-144.4392699999999	386.40643	1217.00695	-152.20803999999987	392.80072	1213.6604	-85.39665999999988	391.72505	1252.80303	-114.85820999999989	185.49420999999998	890.18097	214.59720000000007	45.95522999999998	537.47903	192.18730000000002	76.43269999999998	533.83369	140.43537000000003	427.10281	1179.11928	-126.75038999999987	284.69536	830.95908	-180.17558999999991	293.06173	823.66839	-121.0134599999999	-22.70870000000001	444.55265	89.46032000000002	107.32847999999998	340.03288	172.82515000000004	44.16243999999997	346.54669	234.07887000000002	90.23719999999997	329.15661	218.24254000000002	-0.059760000000014156	418.49741	115.57532000000003	131.94948999999997	290.97014	265.33321	205.51372000000003	710.06514	-124.95759999999993	381.56589	659.68769	-89.69935999999991	373.55809	646.18199	-176.47048999999993	401.40612	645.16607	-132.8458799999999	245.79178000000002	694.40809	-126.21254999999992	472.2214	625.3856	-136.3119499999999	
2	0.017	0.0	1249.99432	7.654007714701862E-14	31.015299999999982	1327.92101	143.6026400000001	93.58374000000002	1347.34293	-96.9900499999999	-1.2549500000000144	1392.99936	117.48763000000008	50.25793000000001	1409.01497	-80.31707999999992	-64.06243	1196.62888	32.15074000000006	-38.305989999999994	1204.57692	-66.75161999999993	-58.9231	1272.5835	-13.505699999999928	-20.61711	1365.3306	3.466060000000081	29.999389999999995	1458.97411	23.127020000000094	81.63179	1541.44254	41.8915700000001	308.59926	1566.54162	106.07352000000014	209.03954	1661.91816	82.64771000000013	144.37951	1613.75181	62.68796000000011	222.96356	1496.92154	79.3609200000001	245.25394	1688.51124	94.65942000000013	437.97908	1833.30907	96.45221000000016	383.89652	1763.62922	170.43476000000018	382.94036	1749.76496	39.38166000000015	341.10855	1786.5172	102.06962000000016	194.87648999999996	1652.0578	261.15003000000013	293.30077	1636.04219	-77.86692999999985	265.4527299999999	1437.1618	343.6782200000002	247.94312999999997	1409.31377	300.9500100000002	409.17489	1421.68403	-71.89095999999986	370.45058	1395.32999	-45.238119999999874	347.20403999999996	1267.44416	432.6604600000001	377.74126999999993	1265.47209	401.10732000000013	240.41339999999997	1428.37712	338.0608100000002	552.71776	1274.19701	-71.53239999999985	556.18383	1277.185	-27.848039999999855	386.94427	1410.86752	-81.45251999999988	508.1967599999999	1237.32526	497.08145000000013	427.5808799999999	1242.88291	494.2129900000001	380.49021999999997	1248.44057	445.6283200000001	707.85403	1239.89493	11.115310000000163	655.20571	1250.4724	-49.24201999999984	587.85649	1257.52405	-54.91918999999985	-36.752240000000015	1222.38532	143.1245600000001	135.41554999999997	933.80558	224.57707000000008	168.88099999999997	931.05663	166.3113400000001	179.63775999999996	955.19956	207.6053100000001	43.923400000000015	1256.56789	-144.2599899999999	385.68931	1204.15861	-149.81764999999984	391.60553	1201.23038	-82.94650999999989	391.96408	1240.07421	-112.76660999999989	187.64555999999996	892.27256	216.56927000000007	31.792179999999977	547.21987	185.37469000000002	62.09035999999998	543.45501	133.50324000000003	427.40161	1167.82469	-125.19663999999987	295.87043	814.34587	-171.62994999999992	306.20887	807.89182	-112.70685999999992	-38.066950000000006	456.98267	81.75131000000003	90.29695999999998	349.71395	164.21974000000003	27.190679999999972	356.58632	225.47347000000002	73.02638999999998	338.71816	209.45786000000004	-15.896090000000012	430.38959	107.62728000000003	114.14108999999998	299.45602	256.18997	222.48548	691.53962	-115.27651999999993	400.44997	648.0943	-80.31707999999992	392.62144	633.45316	-166.96868999999992	420.64876	633.991	-123.4636099999999	263.36114	677.37657	-116.59123999999993	491.94212	616.95948	-127.1089499999999	
3	0.033	0.0	1249.99432	7.654007714701862E-14	30.118909999999982	1328.63813	143.36360000000008	93.88254000000002	1347.10389	-96.9302899999999	-2.0915900000000143	1393.5372	116.83028000000009	50.317690000000006	1408.71617	-80.79515999999991	-64.12219	1196.62888	32.03122000000006	-37.88766999999999	1204.21837	-66.75161999999993	-58.86334	1272.40422	-13.92401999999993	-20.91591	1365.3306	2.8684700000000807	29.521309999999996	1459.09362	22.58918000000009	81.0342	1541.68157	41.4732500000001	307.58334	1566.84042	106.85040000000014	208.20291	1662.21695	82.94651000000013	143.6624	1613.99085	62.568440000000116	222.18668	1497.22033	79.6597200000001	244.29779	1688.81004	95.19725000000012	437.26196	1833.30907	97.82668000000017	382.82085	1763.68898	171.62995000000018	382.22325	1750.004	40.517100000000156	340.33168	1786.75624	103.14530000000016	193.50200999999998	1652.59564	261.2695500000001	293.00197	1636.22147	-77.32908999999985	264.67584999999997	1437.93868	343.73798000000016	247.28576999999999	1410.09064	300.9500100000002	408.81633	1421.86331	-70.87503999999986	369.91274	1395.50927	-44.40147999999987	346.2478899999999	1268.22104	432.9592600000001	376.9643899999999	1266.30873	401.5256400000001	239.63652999999996	1429.09424	338.0608100000002	552.41897	1274.55557	-70.63599999999985	555.82527	1277.54356	-26.891879999999855	386.52595	1411.0468	-80.55611999999988	507.06132999999994	1237.62406	497.67905000000013	426.5052099999999	1243.42075	494.6313000000001	379.53405999999995	1249.15769	445.9271200000001	707.61499	1240.43276	12.011710000000164	654.90691	1251.07	-48.34561999999984	587.55769	1257.94237	-54.08255999999985	-36.63272000000001	1223.34148	143.36360000000008	139.71824999999998	938.10828	227.62482000000008	173.00442999999999	935.12029	169.3590800000001	183.58189999999996	959.86082	210.23474000000007	44.640520000000016	1254.83486	-144.08070999999993	384.55388	1191.37002	-147.36749999999986	390.05177	1188.91987	-80.43659999999988	391.78481	1227.4649	-110.61525999999989	189.73714999999999	894.54343	218.4815800000001	17.92791999999998	557.97662	178.62184000000002	48.10657999999999	554.152	126.69063000000003	427.52113	1156.5301	-123.64288999999987	307.3443	798.2705	-163.3831099999999	319.65481	792.71285	-104.75880999999991	-53.425200000000004	469.47246	74.04231000000003	73.20566999999998	359.51455	155.55458000000002	10.218909999999973	366.74548	216.86807000000002	55.81558999999998	348.27972	200.67318000000003	-31.61290000000001	442.28178	99.67923000000003	96.27292999999997	308.00166	247.04673000000003	239.57677	673.19338	-105.65520999999993	419.15476	636.79971	-71.0543199999999	411.56528	621.02314	-157.5266499999999	439.71211	622.99521	-114.1410899999999	280.9305	660.52432	-106.96991999999993	511.66283	608.59311	-117.9059499999999	
4	0.05	0.0	1249.99432	7.654007714701862E-14	29.16274999999998	1329.47477	143.1245600000001	94.30086000000001	1346.74533	-96.9900499999999	-2.987990000000014	1394.19456	115.99364000000008	50.55673000000001	1408.35761	-81.39275999999991	-64.18195	1196.68864	31.971460000000068	-37.46934999999999	1203.80005	-66.69185999999993	-58.86334	1272.22494	-14.342339999999929	-21.09519	1365.39036	2.1513500000000807	29.162749999999996	1459.21314	21.93182000000009	80.49636	1541.86085	40.9951800000001	306.74671	1567.0197	107.44800000000014	207.48579	1662.39623	83.06603000000013	143.00504	1614.22989	62.38916000000011	221.46957	1497.39961	79.71948000000012	243.58067	1688.98932	95.61557000000013	436.72412	1833.24931	98.96212000000017	381.98421	1763.68898	172.52635000000018	381.62565	1750.06376	41.41349000000016	339.67432	1786.87576	103.98193000000016	192.24705999999998	1653.253	261.2097900000001	292.88245	1636.34099	-76.91077999999986	264.1380199999999	1438.6558	343.4989400000002	246.80768999999998	1410.80776	300.71097000000015	408.69681	1422.04259	-70.27744999999986	369.6737	1395.68855	-43.98315999999987	345.59052999999994	1268.99792	432.8397400000001	376.42654999999996	1267.20512	401.46588000000014	239.03892999999997	1429.81136	337.70225000000016	552.29945	1274.85437	-70.27744999999986	555.70575	1277.72284	-26.533319999999854	386.34667	1411.28584	-80.07803999999987	506.28444999999994	1238.04237	497.7985700000001	425.78808999999995	1244.01835	494.6313000000001	378.87669999999997	1249.93456	445.86736000000013	707.55523	1240.79132	12.370260000000163	654.84715	1251.3688	-47.98706999999985	587.49793	1258.24116	-53.72399999999985	-36.453440000000015	1224.53668	143.66240000000008	145.45518999999996	944.02449	231.8677600000001	178.56207999999998	940.67795	173.48250000000007	188.84074999999999	966.31487	213.9398400000001	45.05884000000001	1252.68351	-143.9611999999999	382.34277	1176.43009	-145.99302999999986	387.66138	1174.57754	-79.06212999999988	390.88841	1212.64449	-109.71886999999988	193.08369999999996	898.78637	221.40981000000008	6.633329999999979	571.30304	172.94467000000003	36.69247999999999	567.3589	121.01346000000002	426.38569	1143.14392	-122.98552999999987	316.96562	780.82066	-156.3314599999999	330.9494	776.21916	-98.00595999999992	-66.33330000000001	484.35263	67.52850000000001	58.62429999999998	371.64578	147.96510000000004	-4.242940000000026	379.35478	209.39810000000003	40.995179999999976	360.35119	193.02394000000004	-44.939320000000016	456.62411	92.92638000000002	80.85491999999998	318.99745	239.03893000000002	254.03862	653.89099	-97.22907999999993	434.87157	623.71233	-62.926999999999914	427.46137	606.9796	-149.2200499999999	455.72772	610.26639	-105.9540099999999	295.75092	642.5964	-98.54379999999992	528.15651	598.0754	-109.7786299999999	
